<?xml version="1.0" standalone="no"?>
<!DOCTYPE svg PUBLIC "-//W3C//DTD SVG 20010904//EN"
 "http://www.w3.org/TR/2001/REC-SVG-20010904/DTD/svg10.dtd">
<svg version="1.0" xmlns="http://www.w3.org/2000/svg"
 width="1000.000000pt" height="1000.000000pt" viewBox="0 0 1000.000000 1000.000000"
 preserveAspectRatio="xMidYMid meet">
<metadata>
Baby Buddy Logo - Safari Pinned Tab
</metadata>
<g transform="translate(0.000000,1000.000000) scale(0.100000,-0.100000)"
fill="#000000" stroke="none">
<path d="M4650 9989 c-1137 -79 -2189 -530 -3020 -1294 -1007 -926 -1580
-2177 -1618 -3530 -13 -467 35 -876 155 -1325 279 -1042 901 -1966 1768
-2625 885 -672 1965 -1059 3060 -1096 467 -16 876 15 1325 102 1042 201 1966
742 2625 1538 672 812 1059 1798 1096 2791 16 424 -9 805 -81 1215 -201 1147
-795 2171 -1685 2905 -812 670 -1798 1057 -2791 1095 -165 6 -198 6 -334 3
-85 -2 -313 -11 -505 -19 -192 -9 -547 -25 -790 -36 -242 -11 -443 -22 -447
-24 -4 -3 -8 0 -8 5 0 6 5 10 10 10 6 0 10 5 10 10 0 6 -4 10 -10 10 -5 0
-10 -4 -10 -10 0 -5 -4 -10 -10 -10 -5 0 -10 5 -10 10 0 6 5 10 10 10 6 0 10
4 10 9 0 5 -4 8 -10 5 -5 -3 -10 1 -10 9 0 9 5 16 10 16 6 0 10 7 10 15 0 8
-4 15 -10 15 -5 0 -10 -7 -10 -15 0 -8 -4 -15 -10 -15 -5 0 -10 7 -10 15 0 8
5 15 10 15 6 0 10 5 10 10 0 6 -4 10 -10 10 -5 0 -10 -4 -10 -10z"/>
</g>
</svg>
